<svg width="48" height="48" viewBox="0 0 48 48" fill="none" xmlns="http://www.w3.org/2000/svg">
<rect width="48" height="48" rx="24" fill="#0B588D"/>
<g clip-path="url(#clip0_556_2525)">
<path d="M14.9999 10C12.5811 10 10.5624 11.7188 10.0999 14H16.1686C16.4311 14 16.6874 13.8938 16.8749 13.7063L17.2874 13.2937C17.6749 12.9062 18.3124 12.9062 18.6999 13.2937C19.0874 13.6812 19.0874 14.3188 18.6999 14.7063L18.2874 15.1188C17.7249 15.6813 16.9624 16 16.1686 16H9.99986V17.2563C9.99986 17.975 10.3874 18.6375 11.0061 18.9937L15.9311 21.8062C17.0686 20.875 18.4686 20.25 19.9999 20.0625V17C19.9999 16.45 20.4499 16 20.9999 16C21.5499 16 21.9999 16.45 21.9999 17V20H25.9999V17C25.9999 16.45 26.4499 16 26.9999 16C27.5499 16 27.9999 16.45 27.9999 17V20.0625C29.5311 20.2563 30.9311 20.8813 32.0686 21.8125L36.9936 19C37.6186 18.6438 37.9999 17.9812 37.9999 17.2625V16.0063H31.8311C31.0374 16.0063 30.2749 15.6875 29.7124 15.125L29.2999 14.7125C28.9124 14.325 28.9124 13.6875 29.2999 13.3C29.6874 12.9125 30.3249 12.9125 30.7124 13.3L31.1249 13.7125C31.3124 13.9 31.5686 14.0062 31.8311 14.0062H37.8999C37.4374 11.7188 35.4186 10 32.9999 10H31.9999L33.5999 11.2C34.0436 11.5312 34.1311 12.1562 33.7999 12.6C33.4686 13.0437 32.8436 13.1313 32.3999 12.8L28.3999 9.8C28.0561 9.54375 27.9124 9.09375 28.0499 8.68125C28.1874 8.26875 28.5686 8 28.9999 8H32.9999C36.8686 8 39.9999 11.1312 39.9999 15V17.2563C39.9999 18.6938 39.2311 20.0188 37.9874 20.7312L33.4811 23.3062C33.8561 23.825 34.1749 24.3937 34.4186 25H36.7624L38.5499 24.1063C39.0436 23.8563 39.6436 24.0625 39.8936 24.5562C40.1436 25.05 39.9374 25.65 39.4436 25.9L37.4436 26.9C37.3061 26.9688 37.1499 27.0063 36.9936 27.0063H34.9311C34.9749 27.3313 34.9936 27.6688 34.9936 28.0063V28.5063L36.3811 29.0812C36.4999 29.1312 36.6124 29.2062 36.7061 29.3L38.7061 31.3C39.0936 31.6875 39.0936 32.325 38.7061 32.7125C38.3186 33.1 37.6811 33.1 37.2936 32.7125L35.4311 30.85L33.8249 30.1812L31.8811 32.125L34.3561 33.0625C34.4874 33.1125 34.6061 33.1875 34.7061 33.2875L36.7061 35.2875C37.0936 35.675 37.0936 36.3125 36.7061 36.7C36.3186 37.0875 35.6811 37.0875 35.2936 36.7L33.4436 34.85L30.3311 33.6625L29.3874 34.6063L31.5811 36.1875C31.8436 36.375 31.9999 36.6812 31.9999 37V39C31.9999 39.55 31.5499 40 30.9999 40C30.4499 40 29.9999 39.55 29.9999 39V37.5125L27.8811 36H20.1249L17.9999 37.5125V39C17.9999 39.55 17.5499 40 16.9999 40C16.4499 40 15.9999 39.55 15.9999 39V37C15.9999 36.675 16.1561 36.375 16.4186 36.1875L18.6186 34.6187L17.6749 33.675L14.5624 34.8625L12.7061 36.7062C12.3186 37.0938 11.6811 37.0938 11.2936 36.7062C10.9061 36.3187 10.9061 35.6813 11.2936 35.2938L13.2936 33.2938C13.3936 33.1938 13.5124 33.1187 13.6436 33.0688L16.1186 32.125L14.1749 30.175L12.5686 30.85L10.7061 32.7062C10.3186 33.0938 9.68111 33.0938 9.29361 32.7062C8.90611 32.3187 8.90611 31.6813 9.29361 31.2938L11.2936 29.2938C11.3874 29.2 11.4936 29.1313 11.6186 29.075L12.9999 28.5V28C12.9999 27.6625 13.0186 27.325 13.0624 27H10.9999C10.8436 27 10.6936 26.9625 10.5499 26.8937L8.54986 25.8937C8.05611 25.6437 7.85611 25.0437 8.09986 24.55C8.34361 24.0562 8.94986 23.8563 9.44361 24.1L11.2374 25H13.5811C13.8249 24.3937 14.1436 23.825 14.5186 23.3062L10.0124 20.7312C8.76861 20.0188 7.99986 18.6938 7.99986 17.2563V15C7.99986 11.1312 11.1311 8 14.9999 8H18.9999C19.4311 8 19.8124 8.275 19.9499 8.68125C20.0874 9.0875 19.9436 9.5375 19.5999 9.8L15.5999 12.8C15.1561 13.1313 14.5311 13.0437 14.1999 12.6C13.8686 12.1562 13.9561 11.5312 14.3999 11.2L15.9999 10H14.9999ZM26.9999 22H20.9999C17.6874 22 14.9999 24.6875 14.9999 28V28.1688L20.8311 34H27.1749L32.9999 28.1688V28C32.9999 24.6875 30.3124 22 26.9999 22Z" fill="white"/>
</g>
<defs>
<clipPath id="clip0_556_2525">
<rect width="32" height="32" fill="white" transform="translate(8 8)"/>
</clipPath>
</defs>
</svg>
