<svg width="48" height="48" viewBox="0 0 48 48" fill="none" xmlns="http://www.w3.org/2000/svg">
<rect width="48" height="48" rx="24" fill="#87CEEB"/>
<path d="M21.4058 19.7821C21.3521 19.948 21.1981 20.0533 21.0326 20.0533C20.9925 20.0533 20.9517 20.0471 20.9116 20.0343L15.0337 18.1294C14.8277 18.0626 14.715 17.8414 14.7815 17.6355C14.8484 17.4296 15.0692 17.3169 15.2757 17.3833L21.1535 19.2882C21.3596 19.355 21.4723 19.5762 21.4058 19.7821ZM19.6569 12.1265C19.6945 12.1265 19.7329 12.1211 19.7709 12.1096L27.813 9.67198C28.0202 9.60926 28.1375 9.39014 28.0743 9.18298C28.0111 8.97583 27.7923 8.85863 27.5851 8.92177L19.543 11.3593C19.3357 11.4221 19.2185 11.6412 19.2816 11.8483C19.3333 12.0175 19.4889 12.1265 19.6569 12.1265ZM35 16.8853V38.1612C35 38.6403 34.6582 39.1185 34.2048 39.2737L23.5737 42.9162C23.4647 42.9534 23.3392 42.9736 23.21 42.986C23.1865 42.9893 23.1654 43 23.141 43C23.1295 43 23.1196 42.9942 23.108 42.9934C23.0762 42.9946 23.0461 43 23.0139 43C22.793 43 22.5705 42.9657 22.3913 42.8981L13.7737 39.6463C13.3257 39.4771 13 39.0071 13 38.5284V17.2521C13 16.875 13.1879 16.4025 13.4467 16.1285L17.3164 12.0246V9.05753C17.3164 8.79384 17.489 8.56152 17.7413 8.48476L29.1539 5.02585C29.3356 4.97055 29.5321 5.00522 29.6844 5.11787C29.8368 5.23053 29.9264 5.40921 29.9264 5.59862V8.623L34.673 15.7983C34.8625 16.0847 35 16.5415 35 16.8853ZM18.5141 9.50155V12.2243L23.3351 19.2997C23.3405 19.308 23.345 19.3187 23.3504 19.3274L33.5083 16.2069L28.8319 9.138L28.8311 9.13635L28.8286 9.13264C28.8232 9.12438 28.8203 9.11572 28.8154 9.10746C28.8001 9.08229 28.7857 9.05671 28.7745 9.02947C28.7671 9.01214 28.7634 8.99398 28.7576 8.97583C28.7518 8.95643 28.7444 8.93786 28.7407 8.91764C28.7353 8.89082 28.734 8.86399 28.7324 8.83676C28.732 8.8252 28.7291 8.81406 28.7291 8.80251V6.40496L18.5141 9.50155ZM22.6246 41.7067V20.3442C22.6246 20.2208 22.5511 19.9827 22.4817 19.8808L17.8982 13.1528L14.3183 16.9496C14.2675 17.0033 14.1981 17.1783 14.1981 17.2521V38.528L22.6246 41.7067ZM33.8167 38.1413L33.8027 17.196L23.6538 20.3136C23.6538 20.3231 23.6567 20.3347 23.6567 20.3442V41.6221L33.8167 38.1413Z" fill="black"/>
</svg>
