<svg width="48" height="48" viewBox="0 0 48 48" fill="none" xmlns="http://www.w3.org/2000/svg">
<rect width="48" height="48" rx="24" fill="#FFD100"/>
<path d="M30.316 39C28.6845 39 27.4502 38.7191 26.6131 38.1572C25.7762 37.5957 25.0673 37.0112 24.4863 36.4038C23.9458 35.827 23.4124 35.3259 22.8861 34.9007C22.3598 34.4757 21.6654 34.2632 20.8031 34.2632C19.7 34.2632 18.4677 34.0693 17.1065 33.6817C15.7452 33.2941 14.4668 32.6634 13.2713 31.7897C12.0761 30.9163 11.0695 29.7803 10.2516 28.3816C9.43402 26.9829 9.01706 25.2724 9.00074 23.25C8.96837 19.1387 9.99572 15.7359 12.0828 13.0417C14.1698 10.3472 17.0766 9 20.8031 9C22.5196 9 23.9796 9.24697 25.183 9.74092C26.3864 10.2349 27.4248 10.8618 28.2982 11.6218C29.1718 12.3821 29.9182 13.2228 30.5374 14.1438C31.1569 15.0649 31.7358 15.9555 32.2742 16.8158C32.6306 17.4029 32.9844 17.9464 33.3357 18.4464C33.6867 18.9464 34.0718 19.4059 34.491 19.8249C35.9992 21.333 37.1277 22.6438 37.8766 23.7572C38.6255 24.8704 39 26.5434 39 28.7763C39 31.7013 38.1007 34.1366 36.302 36.0821C34.5037 38.0274 32.5083 39 30.316 39ZM30.3014 37.2083C31.9711 37.2083 33.5397 36.4088 35.0073 34.8099C36.4747 33.2107 37.2083 31.2017 37.2083 28.783C37.2083 26.9267 36.9437 25.5672 36.4145 24.7046C35.8851 23.8422 34.8279 22.6317 33.2429 21.073C32.7166 20.5467 32.2379 19.9758 31.8069 19.3603C31.3756 18.745 30.9494 18.0953 30.5284 17.4111C29.4171 15.6255 28.2213 14.0759 26.9411 12.7622C25.6606 11.4486 23.6146 10.7917 20.8031 10.7917C17.2747 10.7917 14.7217 12.0421 13.1438 14.5429C11.5659 17.0439 10.7837 19.8841 10.7971 23.0633C10.804 24.9509 11.1986 26.502 11.9809 27.7164C12.7633 28.9312 13.6893 29.8939 14.759 30.6047C15.8287 31.3158 16.9284 31.8047 18.0581 32.0716C19.1879 32.3382 20.1028 32.4714 20.8031 32.4714C22.0365 32.4714 23.028 32.7733 23.7777 33.377C24.5275 33.9807 25.1442 34.5412 25.6278 35.0586C26.2368 35.7243 26.84 36.2491 27.4377 36.6328C28.035 37.0164 28.9896 37.2083 30.3014 37.2083ZM24.0106 28.1597C25.1577 28.1597 26.136 27.7516 26.9454 26.9353C27.7551 26.1187 28.16 25.1368 28.16 23.9897C28.16 22.8426 27.7519 21.8643 26.9356 21.0549C26.119 20.2451 25.1372 19.8403 23.9901 19.8403C22.843 19.8403 21.8648 20.2484 21.0553 21.0647C20.2456 21.8813 19.8407 22.8632 19.8407 24.0103C19.8407 25.1574 20.2489 26.1357 21.0652 26.9451C21.8817 27.7549 22.8636 28.1597 24.0106 28.1597Z" fill="#333333"/>
</svg>
