<svg width="48" height="48" viewBox="0 0 48 48" fill="none" xmlns="http://www.w3.org/2000/svg">
<rect width="48" height="48" rx="24" fill="#16BED4"/>
<path d="M15.7156 20.5364C16.4478 19.6227 17.3054 18.7091 18.2684 17.8636C20.6102 15.8182 23.6379 14.1818 27.1604 14.1818C30.6829 14.1818 33.7106 15.8182 36.0523 17.8636C38.3941 19.9091 40.063 22.3636 40.8809 24C40.063 25.6364 38.4007 28.0909 36.0523 30.1364C33.7106 32.1818 30.6829 33.8182 27.1604 33.8182C23.6379 33.8182 20.6102 32.1818 18.2684 30.1364C17.3054 29.2909 16.4478 28.3773 15.7156 27.4636L14.5745 26.0455L13.0309 26.9727L7.11393 30.5455L10.1351 25.0841L10.7354 24L10.1351 22.9159L7.11393 17.4545L13.0309 21.0205L14.5745 21.9545L15.7156 20.5364ZM5.28013 18.5386L8.30128 24L5.28013 29.4614C4.80519 30.3205 4.95031 31.3977 5.62974 32.0932C6.30917 32.7886 7.3514 32.925 8.18255 32.4273L14.0995 28.8614C14.9043 29.8568 15.8476 30.8659 16.9162 31.8C19.4954 34.0568 22.9849 36 27.167 36C31.3491 36 34.8386 34.0568 37.4244 31.8068C40.0036 29.5568 41.8374 26.8705 42.7675 25.0023C43.0775 24.375 43.0775 23.6318 42.7675 23.0045C41.8374 21.1364 40.0036 18.45 37.4244 16.2C34.8386 13.9432 31.3491 12 27.167 12C22.9849 12 19.4954 13.9432 16.9096 16.1932C15.841 17.1273 14.8977 18.1364 14.0929 19.1318L8.17595 15.5727C7.3514 15.075 6.30257 15.2114 5.62315 15.9068C4.94372 16.6023 4.80519 17.6795 5.28013 18.5386ZM32.4441 25.6364C32.864 25.6364 33.2667 25.464 33.5636 25.1571C33.8605 24.8502 34.0272 24.434 34.0272 24C34.0272 23.566 33.8605 23.1498 33.5636 22.8429C33.2667 22.536 32.864 22.3636 32.4441 22.3636C32.0242 22.3636 31.6216 22.536 31.3247 22.8429C31.0278 23.1498 30.861 23.566 30.861 24C30.861 24.434 31.0278 24.8502 31.3247 25.1571C31.6216 25.464 32.0242 25.6364 32.4441 25.6364Z" fill="black"/>
</svg>
