<svg width="48" height="48" viewBox="0 0 48 48" fill="none" xmlns="http://www.w3.org/2000/svg">
<g clip-path="url(#clip0_2305_21433)">
<path d="M48 24C48 37.2533 37.2533 48 24 48C10.7467 48 0 37.2533 0 24C0 10.7467 10.7467 0 24 0C37.2533 0 48 10.7467 48 24Z" fill="#702573"/>
<path d="M30.559 38.1207C28.7323 38.5741 26.7456 38.7874 24.5856 38.7874C22.4256 38.7874 20.2923 38.4274 18.4123 37.7207C16.5323 37.0141 14.919 36.0141 13.5723 34.7207C12.2123 33.4407 11.159 31.8941 10.399 30.0941C9.63896 28.2941 9.26562 26.2941 9.26562 24.0807C9.26562 21.8674 9.65229 19.8274 10.4256 18.0141C11.199 16.2007 12.2656 14.6541 13.639 13.3741C14.999 12.0941 16.6123 11.1207 18.4523 10.4407C20.2923 9.76073 22.279 9.41406 24.399 9.41406C26.519 9.41406 28.6523 9.7474 30.5456 10.4141C32.439 11.0807 33.9723 11.9874 35.159 13.1207L30.9056 17.9607C30.239 17.2007 29.3856 16.5741 28.3056 16.0941C27.2256 15.6141 25.999 15.3607 24.639 15.3607C23.4523 15.3607 22.359 15.5741 21.3723 16.0007C20.3723 16.4407 19.5056 17.0407 18.7723 17.8141C18.039 18.5874 17.4656 19.5074 17.0523 20.5741C16.639 21.6407 16.439 22.8007 16.439 24.0674C16.439 25.3341 16.6256 26.5341 16.9856 27.6141C17.359 28.6941 17.9056 29.6141 18.6256 30.3874C19.3456 31.1607 20.239 31.7607 21.3056 32.2007C22.3723 32.6407 23.5856 32.8541 24.9456 32.8541C25.7323 32.8541 26.479 32.8007 27.199 32.6807C27.9056 32.5607 28.5723 32.3741 29.1723 32.1074V27.0274H23.8523V21.5874H35.359V36.3741C33.999 37.0807 32.399 37.6674 30.5723 38.1074" fill="white"/>
</g>
<defs>
<clipPath id="clip0_2305_21433">
<rect width="48" height="48" fill="white"/>
</clipPath>
</defs>
</svg>
