<svg width="48" height="48" viewBox="0 0 48 48" fill="none" xmlns="http://www.w3.org/2000/svg">
<rect width="48" height="48" rx="24" fill="#8A1515"/>
<path d="M29.5363 18.6456C29.8299 18.6456 30.0969 18.5267 30.2866 18.3349C30.4787 18.142 30.5971 17.875 30.5971 17.579L30.5947 17.4892C30.5862 17.2332 30.7856 17.0172 31.0405 17.0087C31.0973 17.0062 31.1504 17.0147 31.2012 17.0317C31.2857 17.0584 31.3727 17.0803 31.4597 17.0936C31.5394 17.1057 31.63 17.1118 31.7303 17.1118C31.8173 17.1118 31.897 17.1057 31.9683 17.0972C32.0481 17.0863 32.1266 17.0693 32.2027 17.0487C32.3839 16.999 32.57 17.0645 32.6823 17.2004C32.8418 17.38 33.0399 17.528 33.261 17.6299C33.4773 17.7282 33.7213 17.784 33.9775 17.784C34.1756 17.784 34.3665 17.7513 34.5404 17.6906C34.7253 17.6263 34.8944 17.5341 35.0418 17.4188C35.2146 17.2841 35.4526 17.2914 35.6157 17.4224C35.8006 17.5717 36.0132 17.6918 36.2415 17.7743C36.459 17.852 36.6982 17.8945 36.947 17.8945C37.533 17.8945 38.0646 17.6566 38.4452 17.2732C38.8293 16.8885 39.0661 16.3558 39.0661 15.7661C39.0661 15.1776 38.8293 14.6449 38.4476 14.2614C38.0634 13.8756 37.5342 13.6377 36.9386 13.6377C36.6825 13.6377 36.4783 13.44 36.4674 13.1936C36.4058 12.6694 36.1509 12.2011 35.78 11.8662C35.4055 11.5301 34.9101 11.325 34.3629 11.325C33.8168 11.325 33.3214 11.53 32.9469 11.8662C32.5688 12.2096 32.3127 12.6864 32.2547 13.2216C32.2281 13.4715 32.0082 13.6535 31.7617 13.6365L31.7243 13.6353C31.2458 13.6378 30.8145 13.8319 30.4896 14.1559C30.1791 14.4775 29.9942 14.9033 29.9942 15.3742C29.9942 15.4749 30.0002 15.5659 30.0123 15.646C30.0268 15.7333 30.0474 15.8219 30.0739 15.9081C30.1525 16.152 30.0184 16.4141 29.7755 16.4929C29.7224 16.5099 29.6692 16.5172 29.6173 16.5148L29.5279 16.5111C29.2343 16.5124 28.9673 16.6313 28.7776 16.823C28.5855 17.0159 28.4671 17.2829 28.4671 17.579C28.4671 17.8738 28.5855 18.142 28.7764 18.3325C28.9685 18.5254 29.2343 18.6443 29.5291 18.6443L29.5363 18.6456ZM30.9426 18.989C30.5802 19.353 30.0824 19.5775 29.5363 19.5775C28.9902 19.5775 28.4937 19.3542 28.1313 18.9926C27.77 18.6286 27.5465 18.1299 27.5465 17.5802C27.5465 17.0317 27.7688 16.533 28.1289 16.169C28.3886 15.9081 28.7184 15.72 29.0845 15.6338C29.076 15.5465 29.07 15.4591 29.07 15.3754C29.07 14.6546 29.3563 13.9969 29.8227 13.5164L29.8492 13.4873C30.2588 13.0759 30.8036 12.7981 31.4089 12.7241C31.5563 12.1149 31.885 11.5786 32.3332 11.1745C32.8756 10.6879 33.5872 10.3919 34.3677 10.3919C35.1469 10.3919 35.8609 10.6879 36.401 11.1745C36.8504 11.5798 37.1814 12.1198 37.3288 12.7277C38.0187 12.8138 38.636 13.1318 39.106 13.6014C39.6593 14.1571 40 14.9216 40 15.7649C40 16.607 39.6593 17.3727 39.1072 17.9284C38.5539 18.4841 37.7927 18.8263 36.9531 18.8263C36.6003 18.8263 36.2572 18.7644 35.9383 18.6516C35.7208 18.5739 35.5154 18.4732 35.3233 18.3507C35.1723 18.4404 35.0128 18.5145 34.8449 18.5715C34.5731 18.6661 34.2819 18.7171 33.9799 18.7171C33.5896 18.7171 33.2175 18.631 32.8817 18.4781C32.6219 18.3591 32.3839 18.199 32.1761 18.0061L32.0928 18.0194C31.9683 18.0364 31.8463 18.0461 31.7303 18.0461C31.6469 18.0461 31.5612 18.0412 31.473 18.0315C31.3872 18.3992 31.1999 18.7293 30.9426 18.9901V18.989ZM16.5223 17.7537C16.8159 17.7537 17.0829 17.6348 17.2725 17.4431C17.4646 17.2501 17.583 16.9832 17.583 16.6871L17.5806 16.5973C17.5722 16.3413 17.7715 16.1253 18.0264 16.1168C18.0832 16.1144 18.1364 16.1229 18.1871 16.1399C18.2717 16.1666 18.3574 16.1872 18.4432 16.2017C18.5314 16.2139 18.6232 16.2212 18.7163 16.2212C18.802 16.2212 18.8818 16.2151 18.9603 16.2054C19.0413 16.1932 19.115 16.1775 19.1886 16.1568C19.3747 16.1047 19.5656 16.175 19.6779 16.317C19.8362 16.4942 20.0319 16.6398 20.2506 16.7393C20.4681 16.8376 20.7109 16.8934 20.9682 16.8934C21.1664 16.8934 21.3572 16.8606 21.5312 16.8C21.7161 16.7369 21.8852 16.6434 22.0326 16.5282C22.2054 16.3935 22.4434 16.4007 22.6065 16.5318C22.7913 16.681 23.004 16.8024 23.2335 16.8837C23.4509 16.9613 23.6902 17.0026 23.939 17.0026C24.525 17.0026 25.0541 16.7636 25.4371 16.3789C25.8201 15.9942 26.0581 15.4616 26.0581 14.8742C26.0581 14.2857 25.8201 13.7518 25.4383 13.3684C25.0553 12.9849 24.525 12.7459 23.9318 12.7459C23.6757 12.7459 23.4715 12.5481 23.4606 12.3018C23.399 11.7776 23.1441 11.3092 22.7732 10.9743C22.3987 10.6382 21.9033 10.4331 21.356 10.4331C20.8112 10.4331 20.3146 10.6382 19.9304 10.9852C19.5523 11.3347 19.3046 11.8043 19.249 12.3309C19.2225 12.5808 19.0026 12.7629 18.7561 12.7459L18.7187 12.7446C18.2402 12.7471 17.8089 12.9412 17.4839 13.2652C17.1735 13.5868 16.9886 14.0127 16.9886 14.4835C16.9886 14.5781 16.9958 14.6704 17.0103 14.7735C17.026 14.8657 17.0442 14.9422 17.0695 15.0174C17.1481 15.2613 17.014 15.5234 16.7711 15.6023C16.718 15.6193 16.6648 15.6265 16.6129 15.6241L16.5235 15.6205C16.2299 15.6217 15.9629 15.7406 15.7732 15.9323C15.5811 16.1252 15.4627 16.3922 15.4627 16.6883C15.4627 16.9831 15.5811 17.2513 15.772 17.4418C15.9641 17.6348 16.2299 17.7537 16.5247 17.7537L16.5223 17.7537ZM17.9286 18.0971C17.5661 18.4612 17.0684 18.6856 16.5223 18.6856C15.9762 18.6856 15.4797 18.4624 15.1172 18.1008C14.756 17.7367 14.5325 17.238 14.5325 16.6883C14.5325 16.1399 14.7548 15.6411 15.1148 15.2771C15.3745 15.0162 15.7031 14.8294 16.0692 14.742C16.0608 14.6558 16.0571 14.5709 16.0571 14.4835C16.0571 13.7627 16.3435 13.1051 16.8098 12.6245L16.8364 12.5954C17.2459 12.1841 17.7908 11.9062 18.3961 11.8322C18.5411 11.2376 18.86 10.7098 19.307 10.296C19.8604 9.79607 20.5732 9.5 21.3536 9.5C22.1329 9.5 22.8469 9.79608 23.3869 10.2826C23.8363 10.6879 24.1674 11.2279 24.3148 11.8358C25.0046 11.922 25.6244 12.2399 26.0919 12.7095C26.6453 13.2652 26.986 14.0297 26.986 14.873C26.986 15.7188 26.644 16.4844 26.0943 17.0365C25.5435 17.5898 24.7811 17.9332 23.9403 17.9332C23.5863 17.9332 23.2444 17.8714 22.9254 17.7585C22.708 17.6808 22.5014 17.5801 22.3105 17.4576C22.1595 17.5474 22 17.6214 21.8321 17.6784C21.5602 17.7731 21.2691 17.824 20.967 17.824C20.5768 17.824 20.2047 17.7379 19.8688 17.585C19.6066 17.4636 19.3686 17.3047 19.1633 17.113L19.0811 17.1263C18.9579 17.1433 18.8347 17.153 18.7175 17.153C18.6317 17.153 18.5459 17.1482 18.4601 17.1397C18.3744 17.5073 18.1871 17.8362 17.9298 18.097L17.9286 18.0971ZM11.4639 38.4997C11.2078 38.4997 11 38.291 11 38.0337C11 37.7765 11.2078 37.5678 11.4639 37.5678H14.2269C14.7827 36.4357 15.2357 34.0915 15.5728 31.4837C16.1008 27.4041 16.3351 22.724 16.2578 20.9283C16.2469 20.6722 16.4451 20.455 16.7 20.4441L20.2617 20.4417C20.5178 20.4417 20.7256 20.6504 20.7256 20.9076L20.722 20.9622C20.6483 22.7836 20.8839 27.4297 21.4082 31.4825C21.6885 33.6473 22.0486 35.6301 22.4798 36.8895C22.9111 35.6299 23.2712 33.6471 23.5515 31.4825C24.0758 27.4309 24.3114 22.7835 24.2377 20.9622L24.2341 20.9076C24.2341 20.6504 24.4419 20.4417 24.698 20.4417L28.2597 20.4441C28.5146 20.455 28.7127 20.6722 28.7019 20.9283C28.6234 22.7254 28.8589 27.4056 29.3869 31.4827C29.7252 34.0904 30.177 36.4346 30.7328 37.5681H33.497C33.7531 37.5681 33.9609 37.7768 33.9609 38.034C33.9609 38.2913 33.7531 38.5 33.497 38.5L11.4639 38.4997Z" fill="white"/>
</svg>
