<svg width="48" height="48" viewBox="0 0 48 48" fill="none" xmlns="http://www.w3.org/2000/svg">
<rect width="48" height="48" rx="24" fill="#2A692C"/>
<path d="M24.0115 40.7992C21.6991 40.7992 19.5221 40.3617 17.4805 39.4867C15.4388 38.6117 13.6523 37.4086 12.1211 35.8773C10.5898 34.3461 9.38672 32.5602 8.51172 30.5197C7.63672 28.4792 7.19922 26.299 7.19922 23.9791C7.19922 21.6592 7.63672 19.4857 8.51172 17.4586C9.38672 15.4315 10.5898 13.6523 12.1211 12.1211C13.6523 10.5898 15.4382 9.38672 17.4787 8.51172C19.5192 7.63672 21.6994 7.19922 24.0193 7.19922C26.3393 7.19922 28.5128 7.63672 30.5398 8.51172C32.5669 9.38672 34.3461 10.5898 35.8773 12.1211C37.4086 13.6523 38.6117 15.4347 39.4867 17.4682C40.3617 19.502 40.7992 21.6749 40.7992 23.987C40.7992 26.2993 40.3617 28.4763 39.4867 30.518C38.6117 32.5596 37.4086 34.3461 35.8773 35.8773C34.3461 37.4086 32.5637 38.6117 30.5302 39.4867C28.4964 40.3617 26.3235 40.7992 24.0115 40.7992ZM23.9992 37.6492C27.5576 37.6492 30.6201 36.468 33.1867 34.1055C35.7534 31.743 37.2117 28.8263 37.5617 25.3555C37.2992 25.5888 37.0003 25.7711 36.6648 25.9023C36.3294 26.0336 35.9576 26.0992 35.5492 26.0992H29.2492C28.383 26.0992 27.6414 25.7908 27.0245 25.1739C26.4077 24.557 26.0992 23.8155 26.0992 22.9492V20.8492H18.7492V16.6492C18.7492 15.783 19.0577 15.0414 19.6745 14.4245C20.2914 13.8077 21.033 13.4992 21.8992 13.4992H23.9992V12.4492C23.9992 12.0409 24.0721 11.6617 24.218 11.3117C24.3638 10.9617 24.5534 10.6555 24.7867 10.393C24.6992 10.3638 24.5534 10.3492 24.3492 10.3492H23.9992C20.2076 10.3492 16.9846 11.6763 14.3305 14.3305C11.6763 16.9846 10.3492 20.2076 10.3492 23.9992H19.7992C21.5492 23.9992 23.0367 24.6117 24.2617 25.8367C25.4867 27.0617 26.0992 28.5492 26.0992 30.2992V32.3992H19.7992V36.993C20.4701 37.2263 21.1515 37.394 21.8437 37.4961C22.5355 37.5982 23.254 37.6492 23.9992 37.6492Z" fill="white"/>
</svg>
