<svg width="48" height="48" viewBox="0 0 48 48" fill="none" xmlns="http://www.w3.org/2000/svg">
<rect width="48" height="48" rx="24" fill="#866240"/>
<g clip-path="url(#clip0_554_2474)">
<path d="M14.7636 35.6672C13.9761 34.7484 13.498 33.5578 13.498 32.25C13.498 32.0063 13.4933 31.7531 13.4933 31.4953C13.4652 28.8984 13.4323 25.6312 15.9683 23.0953C17.2105 21.8531 18.7339 21.0703 20.4073 20.7609C21.4808 20.5453 22.2589 20.25 22.7511 19.7531C23.2433 19.2562 23.5433 18.4828 23.7589 17.4094C23.8339 16.9922 23.9417 16.5891 24.073 16.1906L23.023 13.8234C22.3292 12.2719 20.5152 11.5781 18.9636 12.2672L16.5777 13.3266C15.8745 13.6406 15.2652 14.0812 14.7636 14.6062C14.2667 15.1312 13.8589 15.7594 13.5823 16.4766L13.573 16.5C13.3011 17.2172 13.1839 17.9531 13.2027 18.675C13.212 19.0734 13.2636 19.4719 13.362 19.8656C13.573 20.7984 13.6855 21.7875 13.3433 22.6781C13.0011 23.5688 12.2605 24.2297 11.4777 24.7828C11.1402 25.0125 10.8355 25.275 10.5636 25.5609C10.062 26.0859 9.65421 26.7188 9.37765 27.4406C9.10109 28.1578 8.97921 28.9031 8.99796 29.625C9.01671 30.3516 9.17609 31.0828 9.49015 31.7906L10.5542 34.1766C11.2433 35.7281 13.062 36.4266 14.6136 35.7328L14.7636 35.6672ZM35.3886 22.2375L35.3605 22.2656C34.9105 22.7109 34.3995 23.0437 33.8511 23.2687C33.5511 23.3953 33.2323 23.4891 32.9042 23.5453L32.8855 23.55L32.8667 23.5547C31.6198 23.8031 29.9042 24.2719 28.587 25.5891C27.2698 26.9062 26.7964 28.6219 26.5527 29.8688L26.548 29.8875L26.5433 29.9062C26.4823 30.2344 26.3886 30.5531 26.2667 30.8531C26.0417 31.3922 25.7136 31.8984 25.2777 32.3484C25.2683 32.3578 25.2542 32.3719 25.2448 32.3812C25.2402 32.3859 25.2308 32.3953 25.2261 32.4C24.3777 33.2391 23.2198 33.75 21.9355 33.75H18.748C17.9183 33.75 17.248 33.0797 17.248 32.25V29.0625C17.248 28.425 17.3745 27.8203 17.6042 27.2672C17.8339 26.7188 18.1714 26.1984 18.6214 25.7484C19.0761 25.2937 19.5917 24.9563 20.1448 24.7313C20.4448 24.6047 20.7636 24.5109 21.0917 24.4547L21.1105 24.45L21.1292 24.4453C22.3761 24.1969 24.0917 23.7281 25.4089 22.4109C26.7261 21.0938 27.1995 19.3781 27.4433 18.1313L27.448 18.1125L27.4527 18.0938C27.5136 17.7656 27.6073 17.4469 27.7292 17.1469C27.9542 16.5984 28.2917 16.0875 28.737 15.6375L28.7511 15.6234C29.2011 15.1734 29.7167 14.8359 30.2652 14.6109C30.8183 14.3766 31.423 14.25 32.0605 14.25H35.248C36.0777 14.25 36.748 14.9203 36.748 15.75V18.9375C36.748 20.2266 36.2323 21.3891 35.3886 22.2375ZM36.987 23.8219C38.2292 22.5656 38.998 20.8406 38.998 18.9375V15.75C38.998 13.6781 37.3198 12 35.248 12H32.0605C31.1183 12 30.223 12.1875 29.4027 12.525C28.587 12.8625 27.823 13.3594 27.162 14.025L27.1433 14.0437C26.4823 14.7094 25.9855 15.4688 25.648 16.2844C25.4605 16.7297 25.3245 17.2031 25.2355 17.6906C25.0105 18.8391 24.6448 19.9922 23.8152 20.8172C22.9855 21.6422 21.837 22.0078 20.6886 22.2375C20.2011 22.3266 19.7277 22.4672 19.2823 22.65C18.462 22.9875 17.6933 23.4891 17.0277 24.1547C16.362 24.8203 15.8605 25.5844 15.523 26.4047C15.1855 27.225 14.998 28.1203 14.998 29.0625V32.25C14.998 34.3219 16.6761 36 18.748 36H21.9355C23.8339 36 25.5495 35.2406 26.8011 34.0078C26.8292 33.9797 26.8527 33.9562 26.8808 33.9281C27.5277 33.2719 28.0152 32.5172 28.348 31.7156C28.5355 31.2703 28.6714 30.7969 28.7605 30.3094C28.9855 29.1609 29.3511 28.0078 30.1808 27.1828C31.0105 26.3578 32.1589 25.9922 33.3073 25.7625C33.7948 25.6734 34.2683 25.5328 34.7136 25.35C35.5245 25.0125 36.2839 24.5203 36.9448 23.8641L36.987 23.8219ZM33.373 19.275C33.6117 19.275 33.8406 19.1802 34.0094 19.0114C34.1781 18.8426 34.273 18.6137 34.273 18.375C34.273 18.1363 34.1781 17.9074 34.0094 17.7386C33.8406 17.5698 33.6117 17.475 33.373 17.475C33.1343 17.475 32.9054 17.5698 32.7366 17.7386C32.5678 17.9074 32.473 18.1363 32.473 18.375C32.473 18.6137 32.5678 18.8426 32.7366 19.0114C32.9054 19.1802 33.1343 19.275 33.373 19.275ZM30.373 22.275C30.6117 22.275 30.8406 22.1802 31.0094 22.0114C31.1781 21.8426 31.273 21.6137 31.273 21.375C31.273 21.1363 31.1781 20.9074 31.0094 20.7386C30.8406 20.5698 30.6117 20.475 30.373 20.475C30.1343 20.475 29.9054 20.5698 29.7366 20.7386C29.5678 20.9074 29.473 21.1363 29.473 21.375C29.473 21.6137 29.5678 21.8426 29.7366 22.0114C29.9054 22.1802 30.1343 22.275 30.373 22.275ZM21.373 31.275C21.6117 31.275 21.8406 31.1802 22.0094 31.0114C22.1781 30.8426 22.273 30.6137 22.273 30.375C22.273 30.1363 22.1781 29.9074 22.0094 29.7386C21.8406 29.5698 21.6117 29.475 21.373 29.475C21.1343 29.475 20.9054 29.5698 20.7366 29.7386C20.5678 29.9074 20.473 30.1363 20.473 30.375C20.473 30.6137 20.5678 30.8426 20.7366 31.0114C20.9054 31.1802 21.1343 31.275 21.373 31.275ZM25.273 30.375C25.273 30.2568 25.2497 30.1398 25.2045 30.0306C25.1592 29.9214 25.0929 29.8222 25.0094 29.7386C24.9258 29.655 24.8266 29.5887 24.7174 29.5435C24.6082 29.4983 24.4912 29.475 24.373 29.475C24.2548 29.475 24.1377 29.4983 24.0285 29.5435C23.9194 29.5887 23.8201 29.655 23.7366 29.7386C23.653 29.8222 23.5867 29.9214 23.5415 30.0306C23.4962 30.1398 23.473 30.2568 23.473 30.375C23.473 30.4932 23.4962 30.6102 23.5415 30.7194C23.5867 30.8286 23.653 30.9278 23.7366 31.0114C23.8201 31.095 23.9194 31.1613 24.0285 31.2065C24.1377 31.2517 24.2548 31.275 24.373 31.275C24.4912 31.275 24.6082 31.2517 24.7174 31.2065C24.8266 31.1613 24.9258 31.095 25.0094 31.0114C25.0929 30.9278 25.1592 30.8286 25.2045 30.7194C25.2497 30.6102 25.273 30.4932 25.273 30.375ZM33.373 22.275C33.6117 22.275 33.8406 22.1802 34.0094 22.0114C34.1781 21.8426 34.273 21.6137 34.273 21.375C34.273 21.1363 34.1781 20.9074 34.0094 20.7386C33.8406 20.5698 33.6117 20.475 33.373 20.475C33.1343 20.475 32.9054 20.5698 32.7366 20.7386C32.5678 20.9074 32.473 21.1363 32.473 21.375C32.473 21.6137 32.5678 21.8426 32.7366 22.0114C32.9054 22.1802 33.1343 22.275 33.373 22.275ZM25.273 27.375C25.273 27.2568 25.2497 27.1398 25.2045 27.0306C25.1592 26.9214 25.0929 26.8222 25.0094 26.7386C24.9258 26.655 24.8266 26.5887 24.7174 26.5435C24.6082 26.4983 24.4912 26.475 24.373 26.475C24.2548 26.475 24.1377 26.4983 24.0285 26.5435C23.9194 26.5887 23.8201 26.655 23.7366 26.7386C23.653 26.8222 23.5867 26.9214 23.5415 27.0306C23.4962 27.1398 23.473 27.2568 23.473 27.375C23.473 27.4932 23.4962 27.6102 23.5415 27.7194C23.5867 27.8286 23.653 27.9278 23.7366 28.0114C23.8201 28.095 23.9194 28.1613 24.0285 28.2065C24.1377 28.2517 24.2548 28.275 24.373 28.275C24.4912 28.275 24.6082 28.2517 24.7174 28.2065C24.8266 28.1613 24.9258 28.095 25.0094 28.0114C25.0929 27.9278 25.1592 27.8286 25.2045 27.7194C25.2497 27.6102 25.273 27.4932 25.273 27.375Z" fill="white"/>
</g>
<defs>
<clipPath id="clip0_554_2474">
<rect width="30" height="24" fill="white" transform="translate(9 12)"/>
</clipPath>
</defs>
</svg>
