<svg width="48" height="48" viewBox="0 0 48 48" fill="none" xmlns="http://www.w3.org/2000/svg">
<rect width="48" height="48" rx="24" fill="#D2B48C"/>
<path d="M21.1377 18.2054C21.929 18.8705 22.9295 19.2354 23.9632 19.2361C26.7627 19.2361 29.7177 16.555 30.4148 13.382C30.6412 12.2917 30.721 11.1761 30.6521 10.0647C30.5957 9.49891 30.6288 8.92777 30.7501 8.37226C30.7578 8.34677 30.7645 8.32076 30.77 8.29476C30.805 8.12696 30.8024 7.95349 30.7626 7.78678C30.7227 7.62007 30.6464 7.46424 30.5393 7.33044C30.37 7.13272 30.14 6.99654 29.8852 6.9431C29.6305 6.88966 29.3652 6.92197 29.1307 7.03499C28.4535 7.32445 27.7329 7.49908 26.9984 7.55174C26.8158 7.57666 26.6327 7.60097 26.4479 7.62811C23.9234 8.00877 21.7114 9.63203 20.2198 12.1997C18.9489 14.3862 19.3008 16.6878 21.1377 18.2054ZM22.185 13.3162C22.8456 12.1793 24.3223 10.2152 26.7859 9.84392C26.9574 9.81848 27.129 9.79582 27.3005 9.77253C27.6418 9.72828 28.0004 9.68018 28.3677 9.60988C28.3711 9.80794 28.3793 10.0005 28.3893 10.1853C28.4472 11.0965 28.3838 12.0113 28.2007 12.9057C27.7304 15.0463 25.7109 16.9949 23.9637 16.9949C23.4595 16.9971 22.9715 16.8162 22.5905 16.4858C21.6112 15.6764 21.4674 14.5517 22.185 13.3162Z" fill="#333333"/>
<path d="M7.47131 23.5397V23.5408C8.0719 24.0302 8.58749 24.6155 8.99723 25.2731C9.10952 25.4307 9.22187 25.589 9.33694 25.7472C10.8971 27.8729 13.4521 29.1388 16.5316 29.3103C16.6594 29.3174 16.7855 29.3207 16.9083 29.3207C19.3344 29.3207 21.1414 27.9221 21.6238 25.6725C21.7752 24.9957 21.7667 24.2929 21.599 23.62C21.4313 22.947 21.1091 22.3224 20.6578 21.7958C19.3842 20.2411 17.0351 19.2364 14.6732 19.2364C14.0224 19.2343 13.3739 19.3137 12.7428 19.4726C11.6283 19.7722 10.5589 20.2197 9.56321 20.8033C9.06513 21.1208 8.52011 21.358 7.94822 21.5059C7.71191 21.5504 7.49509 21.6667 7.32735 21.839C7.15961 22.0113 7.04913 22.2311 7.01098 22.4686C6.9823 22.6721 7.01006 22.8797 7.09123 23.0685C7.1724 23.2574 7.30388 23.4204 7.47131 23.5397ZM10.7046 22.7391C11.521 22.2589 12.3979 21.8901 13.3121 21.6425C13.7571 21.5305 14.2143 21.4749 14.6732 21.4771C16.3523 21.4771 18.0498 22.172 18.8974 23.2066C19.1339 23.4765 19.3034 23.7984 19.392 24.1461C19.4807 24.4939 19.4859 24.8576 19.4075 25.2078C19.1447 26.4322 18.281 27.0801 16.9089 27.0801C16.8276 27.0801 16.7435 27.0778 16.6588 27.0723C15.2768 26.9954 12.7262 26.55 11.1721 24.4321C11.0642 24.2844 10.9585 24.1356 10.8529 23.9867C10.6293 23.6725 10.4036 23.3532 10.1552 23.0429C10.3461 22.9427 10.5297 22.8398 10.7046 22.7391Z" fill="#333333"/>
<path d="M30.1766 19.1438C30.0876 19.2661 30.0243 19.4052 29.9905 19.5527C29.9568 19.7002 29.9533 19.853 29.9802 20.0018V20.003C30.0674 20.7732 30.0215 21.5526 29.8447 22.3073C29.8126 22.4971 29.7805 22.6874 29.7511 22.8799C29.3534 25.5041 30.3271 28.1857 32.4932 30.4315C32.9581 30.9495 33.5243 31.3666 34.1569 31.6571C34.7894 31.9475 35.4748 32.1051 36.1707 32.1201C37.1298 32.1088 38.0655 31.8195 38.8634 31.2873C39.5665 30.8405 40.1354 30.2116 40.5099 29.4675C40.8845 28.7235 41.0506 27.8919 40.9907 27.061C40.8716 25.732 40.4258 24.4532 39.693 23.3382C38.9601 22.2232 37.963 21.3067 36.7903 20.6702C35.7406 20.1236 34.6239 19.7166 33.4686 19.4597C32.8638 19.348 32.28 19.1433 31.738 18.8527C31.7219 18.8433 31.7053 18.8334 31.6882 18.8234C31.4382 18.6929 31.1506 18.6535 30.8748 18.7119C30.599 18.7704 30.3521 18.9231 30.1766 19.1438ZM31.9919 23.2136C32.0196 23.0343 32.0494 22.8556 32.0799 22.6775C32.1446 22.2935 32.2132 21.8879 32.2563 21.4664C32.4942 21.5328 32.7294 21.5897 32.9545 21.6417C33.9125 21.8527 34.8386 22.1885 35.7093 22.6404C36.5359 23.0976 37.2411 23.746 37.7661 24.5314C38.291 25.3168 38.6204 26.2164 38.7268 27.155C38.7696 27.5973 38.6887 28.0428 38.4931 28.4417C38.2975 28.8407 37.9949 29.1775 37.6191 29.4146C37.1922 29.7074 36.6889 29.8688 36.1713 29.8787C35.7812 29.862 35.3988 29.7651 35.0479 29.5939C34.697 29.4227 34.3852 29.1811 34.1319 28.884C33.1637 27.8809 31.5985 25.8078 31.9919 23.2136Z" fill="#333333"/>
<path d="M21.1213 41.0841C23.0843 41.0696 24.9624 40.2815 26.348 38.8909C27.1138 38.0874 27.7699 37.186 28.2993 36.2104C28.5546 35.6951 28.8898 35.2234 29.2924 34.8128C29.4597 34.6556 29.5762 34.4521 29.6273 34.2283C29.6783 34.0045 29.6615 33.7706 29.579 33.5563C29.5044 33.371 29.3822 33.2086 29.2247 33.0855C29.0672 32.9624 28.8801 32.8831 28.6822 32.8554C27.9926 32.7046 27.3341 32.436 26.7358 32.0614C26.5759 31.9757 26.4155 31.8888 26.2528 31.8047C24.0392 30.6578 21.2767 30.7596 18.7411 32.0603C17.7203 32.5305 16.9056 33.3562 16.4492 34.3833C15.9929 35.4103 15.9261 36.5684 16.2614 37.6411C16.855 39.7645 18.7173 41.083 21.1213 41.0841ZM18.4462 37.0452C18.2499 36.4692 18.2789 35.8401 18.5272 35.2845C18.7756 34.7289 19.225 34.2878 19.7851 34.0499C20.7457 33.5387 21.8133 33.2614 22.9011 33.2404C23.7003 33.2349 24.4888 33.4231 25.1994 33.7887C25.3504 33.8673 25.5004 33.9481 25.6498 34.0294C25.9662 34.1998 26.2993 34.3791 26.6545 34.5434C26.5317 34.7431 26.4177 34.9417 26.3115 35.1348C25.8795 35.9342 25.3441 36.6733 24.7192 37.3329C23.761 38.2837 22.471 38.8251 21.1213 38.8428C20.5367 38.8969 19.9508 38.7476 19.4635 38.4201C18.9763 38.0926 18.6169 37.607 18.4462 37.0452Z" fill="#333333"/>
</svg>
