<svg width="48" height="48" viewBox="0 0 48 48" fill="none" xmlns="http://www.w3.org/2000/svg">
<rect width="48" height="48" rx="24" fill="#4CBB51"/>
<path d="M33.375 11.8125C21.4688 11.8125 11.8125 21.4688 11.8125 33.375V36.1875H14.625C26.5312 36.1875 36.1875 26.5312 36.1875 14.625V11.8125H33.375ZM33.375 9H36.1875C37.7402 9 39 10.2598 39 11.8125V14.625C39 28.0898 28.0898 39 14.625 39H11.8125C10.2598 39 9 37.7402 9 36.1875V33.375C9 19.9102 19.9102 9 33.375 9ZM24 20.7188C24.8702 20.7188 25.7048 21.0645 26.3202 21.6798C26.9355 22.2952 27.2812 23.1298 27.2812 24C27.2812 24.8702 26.9355 25.7048 26.3202 26.3202C25.7048 26.9355 24.8702 27.2812 24 27.2812C23.1298 27.2812 22.2952 26.9355 21.6798 26.3202C21.0645 25.7048 20.7188 24.8702 20.7188 24C20.7188 23.1298 21.0645 22.2952 21.6798 21.6798C22.2952 21.0645 23.1298 20.7188 24 20.7188ZM14.1562 30.5625C14.1562 30.1316 14.2411 29.7049 14.406 29.3068C14.5709 28.9087 14.8126 28.547 15.1173 28.2423C15.422 27.9376 15.7837 27.6959 16.1818 27.531C16.5799 27.3661 17.0066 27.2812 17.4375 27.2812C17.8684 27.2812 18.2951 27.3661 18.6932 27.531C19.0913 27.6959 19.453 27.9376 19.7577 28.2423C20.0624 28.547 20.3041 28.9087 20.469 29.3068C20.6339 29.7049 20.7188 30.1316 20.7188 30.5625C20.7188 30.9934 20.6339 31.4201 20.469 31.8182C20.3041 32.2163 20.0624 32.578 19.7577 32.8827C19.453 33.1874 19.0913 33.4291 18.6932 33.594C18.2951 33.7589 17.8684 33.8438 17.4375 33.8438C17.0066 33.8438 16.5799 33.7589 16.1818 33.594C15.7837 33.4291 15.422 33.1874 15.1173 32.8827C14.8126 32.578 14.5709 32.2163 14.406 31.8182C14.2411 31.4201 14.1562 30.9934 14.1562 30.5625ZM30.5625 14.1562C30.9934 14.1562 31.4201 14.2411 31.8182 14.406C32.2163 14.5709 32.578 14.8126 32.8827 15.1173C33.1874 15.422 33.4291 15.7837 33.594 16.1818C33.7589 16.5799 33.8438 17.0066 33.8438 17.4375C33.8438 17.8684 33.7589 18.2951 33.594 18.6932C33.4291 19.0913 33.1874 19.453 32.8827 19.7577C32.578 20.0624 32.2163 20.3041 31.8182 20.469C31.4201 20.6339 30.9934 20.7188 30.5625 20.7188C30.1316 20.7188 29.7049 20.6339 29.3068 20.469C28.9087 20.3041 28.547 20.0624 28.2423 19.7577C27.9376 19.453 27.6959 19.0913 27.531 18.6932C27.3661 18.2951 27.2812 17.8684 27.2812 17.4375C27.2812 17.0066 27.3661 16.5799 27.531 16.1818C27.6959 15.7837 27.9376 15.422 28.2423 15.1173C28.547 14.8126 28.9087 14.5709 29.3068 14.406C29.7049 14.2411 30.1316 14.1562 30.5625 14.1562Z" fill="#333333"/>
</svg>
