<svg width="48" height="48" viewBox="0 0 48 48" fill="none" xmlns="http://www.w3.org/2000/svg">
<rect y="0.00390625" width="48" height="48" rx="24" fill="#764C29"/>
<path d="M27.2786 9.73549C27.8857 8.98186 27.7188 7.9154 26.9143 7.34663C26.1098 6.77785 24.9714 6.93427 24.3643 7.68789L24 8.14291C23.1879 9.1596 22.6339 10.3256 22.3607 11.5556H14.2857C10.2634 11.5556 7 14.6127 7 18.3809V19.5184C7 20.7768 8.08527 21.7935 9.42857 21.7935H38.5714C39.9147 21.7935 41 20.7768 41 19.5184V18.3809C41 14.6127 37.7366 11.5556 33.7143 11.5556H26.1326C26.3147 11.0721 26.5804 10.61 26.9143 10.1905L27.2786 9.73549ZM37.3571 18.3809H10.6429C10.6429 16.4968 12.2746 14.9682 14.2857 14.9682H33.7143C35.7254 14.9682 37.3571 16.4968 37.3571 18.3809ZM10.6732 24.0686C10.9844 29.6213 13.633 37.5273 23.2335 40.8759C23.7268 41.0466 24.2732 41.0466 24.7665 40.8759C34.367 37.5273 37.0156 29.6213 37.3268 24.0686H33.6763C33.3804 28.7397 31.1946 34.7474 24 37.4988C16.8054 34.7474 14.6121 28.7397 14.3237 24.0686H10.6732Z" fill="white"/>
</svg>
