<svg width="48" height="48" viewBox="0 0 48 48" fill="none" xmlns="http://www.w3.org/2000/svg">
<rect width="48" height="48" rx="24" fill="#4CBB51"/>
<path d="M23.6178 36C22.8433 36 22.0629 35.9119 21.2766 35.7357C20.4904 35.5595 19.6865 35.3069 18.865 34.978C19.1467 32.135 19.9681 29.4801 21.3294 27.0131C22.6907 24.5461 24.4392 22.3728 26.575 20.4931C23.9933 21.8089 21.7578 23.5475 19.8684 25.7091C17.979 27.8706 16.6588 30.3376 15.9078 33.1101C15.8139 33.0396 15.7259 32.9632 15.6438 32.881L15.3797 32.6167C14.2766 31.5124 13.4376 30.2789 12.8625 28.9162C12.2875 27.5535 12 26.132 12 24.6518C12 23.0541 12.3168 21.5269 12.9505 20.0702C13.5842 18.6135 14.4644 17.3213 15.5909 16.1935C17.492 14.2904 19.9564 13.051 22.9841 12.4754C26.0117 11.8997 30.2598 11.8469 35.7284 12.3168C36.1509 17.9322 36.0805 22.2142 35.5172 25.1628C34.9539 28.1115 33.7334 30.5256 31.8558 32.4052C30.7058 33.5565 29.4208 34.4434 28.0008 35.0661C26.5809 35.6887 25.1199 36 23.6178 36Z" fill="#333333"/>
</svg>
