<svg width="48" height="48" viewBox="0 0 48 48" fill="none" xmlns="http://www.w3.org/2000/svg">
<rect width="48" height="48" rx="24" fill="#A85E06"/>
<path d="M34.4396 11.0409C32.7536 11.1231 31.4025 12.4747 31.3202 14.1612L31.1851 16.8174L33.8404 16.6822C35.5264 16.5999 36.8775 15.2484 36.9598 13.5618L37.0949 10.9057L34.4396 11.0409ZM29.4404 14.0672C29.5755 11.417 31.6962 9.29557 34.3456 9.16042L37.5179 9.00175C38.352 8.96062 39.0394 9.64816 38.9982 10.4826L38.8396 13.6559C38.7045 16.3061 36.5897 18.4275 33.9344 18.5626L32.9416 18.6097C34.2986 18.9035 35.5969 19.5851 36.6543 20.6429L37.982 21.9709C38.3462 22.3353 38.3462 22.9347 37.982 23.299L35.9905 25.2911C34.9683 26.3136 33.6524 26.8601 32.3189 26.9365L32.6714 27.2891C33.0356 27.6534 33.0356 28.2528 32.6714 28.6171L30.674 30.6092C29.6519 31.6317 28.336 32.1782 27.0025 32.2546L27.3549 32.6072C27.7192 32.9716 27.7192 33.5709 27.3549 33.9353L25.3635 35.9274C23.1605 38.131 19.5888 38.131 17.3859 35.9274L15.3944 33.9353L10.6008 38.7245C10.2366 39.0889 9.63739 39.0948 9.27317 38.7245C8.90894 38.3543 8.90894 37.7608 9.27317 37.3965L14.0609 32.6072L12.0694 30.6151C9.86649 28.4115 9.86649 24.8386 12.0694 22.635L14.0609 20.6429C14.4251 20.2785 15.0243 20.2785 15.3885 20.6429L15.741 20.9955C15.8174 19.6557 16.3637 18.3393 17.3859 17.3168L19.3773 15.3248C19.7416 14.9604 20.3408 14.9604 20.705 15.3248L21.0575 15.6773C21.1338 14.3375 21.6802 13.0212 22.7023 11.9987L24.6938 10.0066C25.058 9.64228 25.6572 9.64228 26.0214 10.0066L27.3491 11.3347C28.4241 12.4101 29.1056 13.7264 29.3934 15.1073L29.4463 14.0672H29.4404ZM34.657 23.963L35.9846 22.635L35.3208 21.9709C33.1178 19.7673 29.552 19.7673 27.3491 21.9709L29.3405 23.963C30.8092 25.4321 33.1883 25.4321 34.657 23.963ZM24.0241 18.6449L26.0156 20.637L26.1037 20.5489C28.2185 18.3393 28.1891 14.8311 26.0156 12.6569L25.3576 11.9987L24.03 13.3268C22.5613 14.7959 22.5613 17.1758 24.03 18.6449H24.0241ZM20.6991 17.9809L20.0412 17.3168L18.7135 18.6449C17.2449 20.114 17.2449 22.4939 18.7135 23.963L20.705 25.9551L20.7814 25.8787C22.9079 23.6692 22.8844 20.1551 20.705 17.975L20.6991 17.9809ZM15.3885 31.2733L15.4355 31.2263C17.5915 29.0167 17.5739 25.485 15.3885 23.2931L14.7247 22.635L13.3971 23.963C11.9284 25.4321 11.9284 27.8121 13.3971 29.2812L15.3885 31.2733ZM24.03 34.5934L25.3576 33.2654L24.6938 32.6072C22.4908 30.4036 18.925 30.4036 16.7221 32.6072L18.7135 34.5993C20.1822 36.0684 22.5613 36.0684 24.03 34.5993V34.5934ZM29.3464 29.2753L30.674 27.9472L30.0102 27.2832C27.8073 25.0796 24.2414 25.0796 22.0385 27.2832L24.03 29.2753C25.4986 30.7444 27.8778 30.7444 29.3464 29.2753Z" fill="white"/>
</svg>
